<?xml version="1.0" encoding="UTF-8" standalone="no"?>
<!DOCTYPE svg PUBLIC "-//W3C//DTD SVG 1.1//EN" "http://www.w3.org/Graphics/SVG/1.1/DTD/svg11.dtd">
<svg width="100%" height="100%" viewBox="0 0 2197 1200" version="1.1" xmlns="http://www.w3.org/2000/svg" xmlns:xlink="http://www.w3.org/1999/xlink" xml:space="preserve" xmlns:serif="http://www.serif.com/" style="fill-rule:evenodd;clip-rule:evenodd;stroke-miterlimit:10;">
    <g id="Hintergrund_Zeitung_grau">
        <rect x="0" y="0" width="2197" height="1200" style="fill:white;"/>
    </g>
    <g id="Arthur_Schnitzler">
        <g transform="matrix(1.10469,-0.00227939,0.00233811,1.07694,-76.8222,-108.611)">
            <path d="M196,511.5L264,365.2C264.7,363.9 266.2,362.8 267.7,362.8L269.9,362.8C271.4,362.8 272.9,363.9 273.6,365.2L341.6,511.5C342.9,514.3 341.2,517.2 337.9,517.2L313.8,517.2C309.9,517.2 308.1,515.9 306.2,511.8L298.4,494.6L239.3,494.6L231.5,512C230.4,514.6 228,517.2 223.7,517.2L199.8,517.2C196.5,517.2 194.7,514.4 196,511.5ZM285.3,465L268.8,429.1L268.6,429.1L252.3,465L285.3,465Z" style="fill-rule:nonzero;"/>
            <path d="M357.5,369.2C357.5,367 359.2,365.1 361.6,365.1L426.6,365.1C452.7,365.1 474,386.2 474,412C474,432 460.7,448.1 441.8,455.7L471.6,510.9C473.1,513.7 471.6,517.2 467.9,517.2L439,517.2C437.3,517.2 436,516.1 435.5,515.2L406.6,457.6L391.6,457.6L391.6,513C391.6,515.2 389.6,517.1 387.5,517.1L361.6,517.1C359.2,517.1 357.5,515.1 357.5,513L357.5,369.2ZM423.8,430C432.7,430 440.3,421.7 440.3,412.6C440.3,403.5 432.7,396.1 423.8,396.1L391.6,396.1L391.6,430L423.8,430Z" style="fill-rule:nonzero;"/>
            <path d="M520.7,397L489.6,397C487.2,397 485.5,395 485.5,392.9L485.5,369.2C485.5,367 487.2,365.1 489.6,365.1L586.1,365.1C588.5,365.1 590.2,367.1 590.2,369.2L590.2,392.9C590.2,395.1 588.5,397 586.1,397L555,397L555,513C555,515.2 553,517.1 550.9,517.1L524.8,517.1C522.6,517.1 520.7,515.1 520.7,513L520.7,397Z" style="fill-rule:nonzero;"/>
            <path d="M610,369.2C610,367 612,365.1 614.1,365.1L640,365.1C642.4,365.1 644.1,367.1 644.1,369.2L644.1,424L706.3,424L706.3,369.2C706.3,367 708,365.1 710.4,365.1L736.3,365.1C738.5,365.1 740.4,367.1 740.4,369.2L740.4,513.1C740.4,515.3 738.4,517.2 736.3,517.2L710.4,517.2C708,517.2 706.3,515.2 706.3,513.1L706.3,455.9L644.1,455.9L644.1,513.1C644.1,515.3 642.4,517.2 640,517.2L614.1,517.2C611.9,517.2 610,515.2 610,513.1L610,369.2Z" style="fill-rule:nonzero;"/>
            <path d="M773.6,369.2C773.6,367 775.6,365.1 777.7,365.1L804.4,365.1C806.8,365.1 808.5,367.1 808.5,369.2L808.5,457.2C808.5,472.4 819.8,484.6 835.2,484.6C850.8,484.6 862.4,472.4 862.4,457.2L862.4,369.2C862.4,367 864.1,365.1 866.5,365.1L893.2,365.1C895.4,365.1 897.3,367.1 897.3,369.2L897.3,459C897.3,492 869.5,519.4 835.1,519.4C801,519.4 773.4,492 773.4,459L773.4,369.2L773.6,369.2Z" style="fill-rule:nonzero;"/>
            <path d="M930.6,369.2C930.6,367 932.3,365.1 934.7,365.1L999.7,365.1C1025.8,365.1 1047.1,386.2 1047.1,412C1047.1,432 1033.8,448.1 1014.9,455.7L1044.7,510.9C1046.2,513.7 1044.7,517.2 1041,517.2L1012,517.2C1010.3,517.2 1009,516.1 1008.5,515.2L979.6,457.6L964.6,457.6L964.6,513C964.6,515.2 962.6,517.1 960.5,517.1L934.6,517.1C932.2,517.1 930.5,515.1 930.5,513L930.5,369.2L930.6,369.2ZM996.8,430C1005.7,430 1013.3,421.7 1013.3,412.6C1013.3,403.5 1005.7,396.1 996.8,396.1L964.6,396.1L964.6,430L996.8,430Z" style="fill-rule:nonzero;"/>
        </g>
        <g transform="matrix(1.10469,-0.00227939,0.00233811,1.07694,-76.8222,-108.611)">
            <path d="M206.9,690.3L217.1,672.3C218.8,669.5 223,669.9 224.5,671C225.4,671.4 241,683 255.4,683C264.1,683 270.4,677.6 270.4,670C270.4,660.9 262.8,653.9 248,648.1C229.3,640.7 205.8,626.2 205.8,600.1C205.8,578.6 222.5,556.9 256,556.9C278.6,556.9 296,568.4 302.5,573.2C305.1,574.7 304.7,578.6 303.8,580.2L292.7,596.9C291.2,599.3 287.3,601.2 285.3,599.7C283.3,598.6 267.5,586.7 254.2,586.7C246.4,586.7 240.5,591.9 240.5,597.8C240.5,605.8 247,611.9 264.2,618.9C281.2,625.6 308.1,638.9 308.1,668.4C308.1,690.8 288.8,713.4 256.8,713.4C228.5,713.4 212.9,701.7 207.9,696.7C205.8,694.2 205.1,693.4 206.9,690.3Z" style="fill-rule:nonzero;"/>
            <path d="M400.1,556.7C421.8,556.7 437.9,563.4 452.7,576.9C454.7,578.6 454.7,581.2 452.9,583L435.9,600.6C434.4,602.1 432,602.1 430.5,600.6C422.5,593.4 411.8,589.5 401.2,589.5C376.6,589.5 358.6,609.9 358.6,634.3C358.6,658.4 376.9,678.4 401.4,678.4C411.6,678.4 422.7,674.7 430.5,668C432,666.7 434.8,666.7 436.1,668.2L453.1,686.2C454.6,687.7 454.4,690.5 452.9,692.1C438.1,706.4 419.4,713.2 400.1,713.2C356.6,713.2 321.6,678.6 321.6,635.2C321.6,591.7 356.6,556.7 400.1,556.7Z" style="fill-rule:nonzero;"/>
            <path d="M477,563C477,560.8 479,558.9 481.1,558.9L507,558.9C509.4,558.9 511.1,560.9 511.1,563L511.1,617.8L573.3,617.8L573.3,563C573.3,560.8 575,558.9 577.4,558.9L603.3,558.9C605.5,558.9 607.4,560.9 607.4,563L607.4,706.9C607.4,709.1 605.4,711 603.3,711L577.4,711C575,711 573.3,709 573.3,706.9L573.3,649.7L511.1,649.7L511.1,706.9C511.1,709.1 509.4,711 507,711L481.1,711C478.9,711 477,709 477,706.9L477,563Z" style="fill-rule:nonzero;"/>
            <path d="M642.6,560.6C642.6,558.4 644.6,556.7 646.7,556.7L652.1,556.7L738.8,640.1L739,640.1L739,563C739,560.8 740.7,558.9 743.1,558.9L769.2,558.9C771.4,558.9 773.3,560.9 773.3,563L773.3,709.3C773.3,711.5 771.3,713.2 769.2,713.2L765.7,713.2C765,713.2 763.3,712.5 762.9,712.1L677.1,625.8L676.9,625.8L676.9,706.9C676.9,709.1 675.2,711 672.8,711L647,711C644.8,711 642.9,709 642.9,706.9L642.6,560.6Z" style="fill-rule:nonzero;"/>
            <path d="M808.9,563C808.9,560.8 810.9,558.9 813,558.9L839.1,558.9C841.3,558.9 843.2,560.9 843.2,563L843.2,706.9C843.2,709.1 841.2,711 839.1,711L813,711C810.8,711 808.9,709 808.9,706.9L808.9,563Z" style="fill-rule:nonzero;"/>
            <path d="M898.2,590.8L867.1,590.8C864.7,590.8 863,588.8 863,586.7L863,563C863,560.8 864.7,558.9 867.1,558.9L963.6,558.9C966,558.9 967.7,560.9 967.7,563L967.7,586.7C967.7,588.9 966,590.8 963.6,590.8L932.5,590.8L932.5,706.8C932.5,709 930.5,710.9 928.4,710.9L902.3,710.9C900.1,710.9 898.2,708.9 898.2,706.8L898.2,590.8Z" style="fill-rule:nonzero;"/>
            <path d="M973.8,702.9L1031.6,591.2L1031.6,590.8L984.2,590.8C982,590.8 980.1,588.8 980.1,586.7L980.1,563C980.1,560.8 982.1,558.9 984.2,558.9L1076.6,558.9C1078.8,558.9 1080.7,560.9 1080.7,563L1080.7,565.8L1024.8,678.6L1024.8,679L1072.2,679C1074.6,679 1076.3,681 1076.3,683.1L1076.3,706.8C1076.3,709 1074.6,710.9 1072.2,710.9L977.9,710.9C975.7,710.9 973.8,708.9 973.8,706.8L973.8,702.9Z" style="fill-rule:nonzero;"/>
            <path d="M1103.3,563C1103.3,560.8 1105,558.9 1107.4,558.9L1133.3,558.9C1135.5,558.9 1137.4,560.9 1137.4,563L1137.4,679L1189.1,679C1191.5,679 1193.2,681 1193.2,683.1L1193.2,706.8C1193.2,709 1191.5,710.9 1189.1,710.9L1107.4,710.9C1105,710.9 1103.3,708.9 1103.3,706.8L1103.3,563Z" style="fill-rule:nonzero;"/>
            <path d="M1212.4,563C1212.4,560.8 1214.1,558.9 1216.5,558.9L1306.5,558.9C1308.9,558.9 1310.6,560.9 1310.6,563L1310.6,586.7C1310.6,588.9 1308.9,590.8 1306.5,590.8L1246.3,590.8L1246.3,617.7L1295.8,617.7C1298,617.7 1299.9,619.7 1299.9,621.8L1299.9,645.5C1299.9,647.9 1297.9,649.6 1295.8,649.6L1246.3,649.6L1246.3,679L1306.5,679C1308.9,679 1310.6,681 1310.6,683.1L1310.6,706.8C1310.6,709 1308.9,710.9 1306.5,710.9L1216.5,710.9C1214.1,710.9 1212.4,708.9 1212.4,706.8L1212.4,563Z" style="fill-rule:nonzero;"/>
            <path d="M1337.8,563C1337.8,560.8 1339.5,558.9 1341.9,558.9L1406.9,558.9C1433,558.9 1454.3,580 1454.3,605.8C1454.3,625.8 1441,641.9 1422.1,649.5L1451.9,704.7C1453.4,707.5 1451.9,711 1448.2,711L1419.3,711C1417.6,711 1416.3,709.9 1415.8,709L1386.9,651.4L1371.9,651.4L1371.9,706.8C1371.9,709 1369.9,710.9 1367.8,710.9L1341.9,710.9C1339.5,710.9 1337.8,708.9 1337.8,706.8L1337.8,563ZM1404.1,623.8C1413,623.8 1420.6,615.5 1420.6,606.4C1420.6,597.3 1413,589.9 1404.1,589.9L1371.9,589.9L1371.9,623.8L1404.1,623.8Z" style="fill-rule:nonzero;"/>
        </g>
    </g>
    <g id="Profil">
        <path d="M1777.8,129.3L1778.9,129.9L1777.8,129.3Z" style="fill:white;fill-rule:nonzero;stroke:rgb(35,31,32);stroke-width:1px;"/>
        <path d="M1751.7,131.5L1752.3,132.6L1752.9,131.5L1751.7,131.5Z" style="fill:rgb(35,31,32);fill-rule:nonzero;stroke:white;stroke-width:1px;"/>
        <path d="M1773.4,133.2C1774.8,134.8 1774.1,134.1 1775.6,133.2L1773.4,133.2Z" style="fill:rgb(35,31,32);fill-rule:nonzero;stroke:white;stroke-width:1px;"/>
        <path d="M1731.6,136.5L1731,137.6L1732.1,137.6L1731.6,136.5Z" style="fill:rgb(35,31,32);fill-rule:nonzero;stroke:white;stroke-width:1px;"/>
        <path d="M1746.1,139.9C1746.9,141 1746.2,140.2 1747.2,141L1746.1,139.9Z" style="fill:rgb(35,31,32);fill-rule:nonzero;stroke:white;stroke-width:1px;"/>
        <path d="M1718.9,152.4L1718.9,154.6L1720.6,154.6L1720,152.4L1718.9,152.4Z" style="fill:white;fill-rule:nonzero;"/>
        <path d="M1712.3,170.8L1712.3,172C1712.8,171 1712.8,171.8 1712.3,170.8Z" style="fill:rgb(35,31,32);fill-rule:nonzero;stroke:white;stroke-width:1px;"/>
        <path d="M1825.4,183.1L1825.4,184.2C1826,183.2 1825.9,184.1 1825.4,183.1Z" style="fill:rgb(35,31,32);fill-rule:nonzero;stroke:white;stroke-width:1px;"/>
        <path d="M1711.7,192.6L1712.3,193.7L1712.9,192.6L1711.7,192.6Z" style="fill:rgb(35,31,32);fill-rule:nonzero;stroke:white;stroke-width:1px;"/>
        <path d="M1708.9,197.6C1709.7,198.7 1709,197.9 1710,198.7L1708.9,197.6Z" style="fill:rgb(35,31,32);fill-rule:nonzero;stroke:white;stroke-width:1px;"/>
        <path d="M1704.4,209.8L1705,210.9L1705.6,209.8L1704.4,209.8Z" style="fill:rgb(35,31,32);fill-rule:nonzero;stroke:white;stroke-width:1px;"/>
        <path d="M1803.1,209.8L1804.2,210.4L1803.1,209.8Z" style="fill:rgb(35,31,32);fill-rule:nonzero;stroke:white;stroke-width:1px;"/>
        <path d="M1815.4,226L1816.5,226.6L1815.4,226Z" style="fill:rgb(35,31,32);fill-rule:nonzero;stroke:white;stroke-width:1px;"/>
        <path d="M1710.6,227.1L1710,231.6C1711.5,230.7 1710.8,231.4 1711.7,229.9C1711.7,227.8 1712.9,228.5 1710.6,227.1Z" style="fill:white;fill-rule:nonzero;"/>
        <path d="M1713.9,242.7L1713.3,243.8C1715,243.1 1714,243.8 1715,242.7L1713.9,242.7Z" style="fill:rgb(35,31,32);fill-rule:nonzero;stroke:white;stroke-width:1px;"/>
        <path d="M1715.6,243.3L1716.7,243.9L1715.6,243.3Z" style="fill:rgb(35,31,32);fill-rule:nonzero;stroke:white;stroke-width:1px;"/>
        <path d="M1734,247.2L1735.1,247.8L1734,247.2Z" style="fill:rgb(35,31,32);fill-rule:nonzero;stroke:white;stroke-width:1px;"/>
        <path d="M1853.3,248.9C1854.1,250 1853.4,249.2 1854.4,250L1853.3,248.9Z" style="fill:rgb(35,31,32);fill-rule:nonzero;stroke:white;stroke-width:1px;"/>
        <path d="M1704.4,260.6L1705,265L1706.1,265.6C1706.1,262.5 1706.1,261.9 1704.4,260.6Z" style="fill:white;fill-rule:nonzero;"/>
        <path d="M1774.7,261.7C1775.7,263.1 1775,262.3 1776.4,261.7L1774.7,261.7Z" style="fill:rgb(35,31,32);fill-rule:nonzero;stroke:white;stroke-width:1px;"/>
        <path d="M1872.8,279L1873.4,280.1C1873.1,279.6 1873.8,279.7 1872.8,279Z" style="fill:rgb(35,31,32);fill-rule:nonzero;stroke:white;stroke-width:1px;"/>
        <path d="M1889,301.3L1885.1,303.5L1885.7,306.3L1888.5,306.3C1889.4,303.9 1889.8,304.4 1891.3,303L1890.2,303L1889,301.3Z" style="fill:white;fill-rule:nonzero;"/>
        <path d="M1727.9,308L1727.3,310.2C1728.4,309.3 1728.3,309.2 1729,308L1727.9,308Z" style="fill:white;fill-rule:nonzero;"/>
        <path d="M1698.9,374.9C1699.9,376 1698.9,375.3 1700.6,376L1698.9,374.9Z" style="fill:rgb(35,31,32);fill-rule:nonzero;stroke:white;stroke-width:1px;"/>
        <path d="M1701.1,392.7L1700.5,393.8L1701.6,393.8L1701.1,392.7Z" style="fill:rgb(35,31,32);fill-rule:nonzero;stroke:white;stroke-width:1px;"/>
        <path d="M1679.4,421.1L1678.8,422.2L1679.9,422.2L1679.4,421.1Z" style="fill:rgb(35,31,32);fill-rule:nonzero;stroke:white;stroke-width:1px;"/>
        <path d="M1521.6,540.4L1522.2,541.5L1522.8,540.4L1521.6,540.4Z" style="fill:rgb(35,31,32);fill-rule:nonzero;stroke:white;stroke-width:1px;"/>
        <path d="M1533.9,543.8L1535,544.3L1533.9,543.8Z" style="fill:rgb(35,31,32);fill-rule:nonzero;stroke:white;stroke-width:1px;"/>
        <path d="M1536.7,546.5L1536.1,547.6C1537.1,547 1536.4,547.2 1536.7,546.5Z" style="fill:rgb(35,31,32);fill-rule:nonzero;stroke:white;stroke-width:1px;"/>
        <path d="M1519.4,556.6L1519.4,557.7C1519.9,556.7 1519.9,557.6 1519.4,556.6Z" style="fill:rgb(35,31,32);fill-rule:nonzero;stroke:white;stroke-width:1px;"/>
        <path d="M1530.5,560.5L1531.6,561.1L1530.5,560.5Z" style="fill:rgb(35,31,32);fill-rule:nonzero;stroke:white;stroke-width:1px;"/>
        <path d="M1533.3,586.7L1532.7,587.8C1533.8,587.1 1533.1,587.3 1533.3,586.7Z" style="fill:rgb(35,31,32);fill-rule:nonzero;stroke:white;stroke-width:1px;"/>
        <path d="M1542.2,599L1542.8,600.1L1543.4,599L1542.2,599Z" style="fill:rgb(35,31,32);fill-rule:nonzero;stroke:white;stroke-width:1px;"/>
        <path d="M1551.2,658.6C1552,659.7 1551.2,658.9 1552.3,659.7L1551.2,658.6Z" style="fill:rgb(35,31,32);fill-rule:nonzero;stroke:white;stroke-width:1px;"/>
        <path d="M1554.5,703.2L1554.5,704.9L1555.1,703.2L1554.5,703.2Z" style="fill:rgb(35,31,32);fill-rule:nonzero;stroke:white;stroke-width:1px;"/>
        <path d="M1559,732.7L1559.6,734.4C1560.7,733.4 1560,734.4 1560.7,732.7L1559,732.7Z" style="fill:rgb(35,31,32);fill-rule:nonzero;stroke:white;stroke-width:1px;"/>
        <path d="M1552.8,756.2L1552.8,757.9L1553.9,757.9L1552.8,756.2Z" style="fill:rgb(35,31,32);fill-rule:nonzero;stroke:white;stroke-width:1px;"/>
        <path d="M1558.4,779.6C1559.3,781 1558.7,780.3 1560.1,779.6L1558.4,779.6Z" style="fill:rgb(35,31,32);fill-rule:nonzero;stroke:white;stroke-width:1px;"/>
        <path d="M1553.9,782.4L1555,782.9L1553.9,782.4Z" style="fill:rgb(35,31,32);fill-rule:nonzero;stroke:white;stroke-width:1px;"/>
        <path d="M1543.3,795.2L1544.4,796.9C1543.8,795.2 1544.5,796.2 1543.3,795.2Z" style="fill:rgb(35,31,32);fill-rule:nonzero;stroke:white;stroke-width:1px;"/>
        <path d="M1557.8,801.9L1557.2,803L1558.9,801.9L1557.8,801.9Z" style="fill:rgb(35,31,32);fill-rule:nonzero;stroke:white;stroke-width:1px;"/>
        <path d="M1555.6,803L1556.7,804.1L1555.6,803Z" style="fill:rgb(35,31,32);fill-rule:nonzero;stroke:white;stroke-width:1px;"/>
        <path d="M1556.7,806.3C1557.2,808.3 1556.7,807.4 1557.8,808.5L1556.7,806.3Z" style="fill:rgb(35,31,32);fill-rule:nonzero;stroke:white;stroke-width:1px;"/>
        <path d="M1553.4,816.9L1554.5,819.1L1553.4,816.9Z" style="fill:rgb(35,31,32);fill-rule:nonzero;stroke:white;stroke-width:1px;"/>
        <path d="M1546.7,819.7L1547.8,821.9L1548.4,821.3L1548.4,820.7L1546.7,819.7Z" style="fill:rgb(35,31,32);fill-rule:nonzero;stroke:white;stroke-width:1px;"/>
        <path d="M1571.2,823.6L1572.3,824.1L1571.2,823.6Z" style="fill:rgb(35,31,32);fill-rule:nonzero;stroke:white;stroke-width:1px;"/>
        <path d="M1563.4,835.9L1564.5,836.5L1563.4,835.9Z" style="fill:rgb(35,31,32);fill-rule:nonzero;stroke:white;stroke-width:1px;"/>
        <path d="M1564,839.2L1564.6,840.3C1564.3,839.8 1565,840 1564,839.2Z" style="fill:rgb(35,31,32);fill-rule:nonzero;stroke:white;stroke-width:1px;"/>
        <path d="M1553.4,840.9L1554.5,841.5L1553.4,840.9Z" style="fill:rgb(35,31,32);fill-rule:nonzero;stroke:white;stroke-width:1px;"/>
        <path d="M1566.2,842.6L1567.3,843.2L1566.2,842.6Z" style="fill:rgb(35,31,32);fill-rule:nonzero;stroke:white;stroke-width:1px;"/>
        <path d="M1556.7,857L1557.8,857.6L1556.7,857Z" style="fill:rgb(35,31,32);fill-rule:nonzero;stroke:white;stroke-width:1px;"/>
        <path d="M1565.6,867.1C1566.6,868.2 1565.6,867.5 1567.3,868.2C1566.3,867.1 1567.3,867.8 1565.6,867.1Z" style="fill:rgb(35,31,32);fill-rule:nonzero;stroke:white;stroke-width:1px;"/>
        <path d="M1550,880.5L1550,881.6C1550.6,880.6 1550.5,881.5 1550,880.5Z" style="fill:rgb(35,31,32);fill-rule:nonzero;stroke:white;stroke-width:1px;"/>
        <path d="M1556.2,894.4L1555.6,895.5L1557.3,895.5L1556.7,894.4L1556.2,894.4Z" style="fill:rgb(35,31,32);fill-rule:nonzero;stroke:white;stroke-width:1px;"/>
        <path d="M1560.1,903.9L1560.1,905.6L1561.2,905.6L1560.1,903.9Z" style="fill:rgb(35,31,32);fill-rule:nonzero;stroke:white;stroke-width:1px;"/>
        <path d="M1558.4,917.3L1558.4,918.4C1558.9,917.4 1558.9,918.3 1558.4,917.3Z" style="fill:rgb(35,31,32);fill-rule:nonzero;stroke:white;stroke-width:1px;"/>
        <path d="M1555.6,940.7C1557,941.6 1555.7,941.2 1557.3,940.7L1555.6,940.7Z" style="fill:rgb(35,31,32);fill-rule:nonzero;stroke:white;stroke-width:1px;"/>
        <path d="M1559,954.6L1560.1,955.2L1559,954.6Z" style="fill:rgb(35,31,32);fill-rule:nonzero;stroke:white;stroke-width:1px;"/>
        <path d="M1555.6,978.6L1555.6,979.7C1556.2,978.7 1556.1,979.6 1555.6,978.6Z" style="fill:rgb(35,31,32);fill-rule:nonzero;stroke:white;stroke-width:1px;"/>
        <path d="M1542.2,1028.2C1543,1029.3 1542.2,1028.5 1543.3,1029.3L1542.2,1028.2Z" style="fill:rgb(35,31,32);fill-rule:nonzero;stroke:white;stroke-width:1px;"/>
        <path d="M1543.9,1028.2L1545.6,1029.3C1544.6,1028.2 1545.6,1028.9 1543.9,1028.2Z" style="fill:rgb(35,31,32);fill-rule:nonzero;stroke:white;stroke-width:1px;"/>
        <g transform="matrix(1,0,0,1,72.238,-10.5216)">
            <path d="M1985.4,794.7C1987.4,791.1 1990.2,780.5 1987.6,774.6C1985.6,770.4 1972.3,766.8 1969.2,766.8L1969.2,758.4C1974.2,761 1978.1,764.7 1984.8,765.7L1985.9,765.1C1986.1,764 1986.3,762.9 1986.5,761.8C1982.1,758.9 1972.8,752.4 1968.7,755.1L1965.9,749.5C1961.6,747 1959,749.5 1952.5,748.4C1935.5,745.5 1918.2,742.9 1902.9,740.6C1903.6,737.1 1904.4,733.5 1905.1,730C1904,721.8 1902.9,713.7 1901.8,705.5L1901.8,704.4C1903.9,700.4 1908.2,699.1 1906.8,693.2C1905.4,687.3 1897.8,677 1900.1,668.7C1901.2,664.7 1904.3,664.9 1904.6,658.7L1886.8,659.8L1885.7,658.1C1905.3,655.7 1923.3,657.5 1941.4,653.6L1942.5,652.5C1941.6,639.3 1936.7,629 1934.1,618.5C1928.8,596.8 1930.7,575.4 1923.5,553.8C1917.2,534.7 1908.9,512.7 1905.1,491.4C1904.9,481.7 1904.7,472.1 1904.5,462.4C1903.6,457.4 1900.6,450 1902.3,443.4C1904,436.8 1908,429.5 1906.8,420C1905.6,411 1897.4,397.4 1900.1,385.4L1904.6,375.4C1906.7,364.8 1903.8,355.3 1902.4,346.4C1901.7,337.3 1900.9,328.2 1900.2,319.1C1896.2,299.1 1888,284.3 1877.9,270.6C1872.9,263.8 1864.4,261.3 1858.4,255.6C1853.1,250.5 1852,244.3 1842.2,243.3C1840.3,240.1 1841.1,239.8 1842.2,236C1838.4,230.5 1833.7,221.9 1827.1,219.3C1812.8,226.4 1797.6,236.7 1787,247.7L1788.1,247.7C1782.6,251.1 1766.1,267.9 1759.7,268.3C1761.9,251.1 1796.5,226.3 1810.4,218.7C1815,216.2 1823,216.9 1827.7,213.7C1833.8,209.5 1829.6,204.6 1832.7,198.1C1833.6,196.2 1837,194.6 1837.7,192C1839.1,186.7 1835.6,183 1837.1,177.5L1834.3,176.9L1837.1,176.3C1836,167.3 1833.7,145.4 1829.8,138.4C1827.8,134.8 1817.2,130.6 1820.9,125.6L1822,124.5C1820.2,122.5 1819.4,120.4 1817,118.9L1808.6,121.7C1807.5,117.3 1806.2,114.6 1800.8,113.3C1801.6,112.2 1802.3,111.1 1803,110L1802.4,108.9C1793.8,107.7 1786.8,109.7 1779.5,110L1772.2,106.7C1766.9,105.1 1758.9,109.1 1754.9,110.6L1754.3,110.6C1755.6,108.8 1756.3,109.2 1757.1,106.7C1745.3,106.7 1742.9,115.3 1737,121.2C1734.1,119.2 1733.6,119.2 1728.6,119.5C1726,122.9 1721.5,130.1 1720.8,134.6L1717.5,135.2C1717.9,138 1719.1,140.7 1720.8,143C1717.8,153.7 1713.9,164.2 1709.1,174.2C1707,178.3 1712,179.2 1710.2,183.7C1707.5,190.4 1701.5,194.6 1698.5,202.1C1700.8,206 1701.8,208.7 1707.4,209.3L1708.5,211L1702.9,213.2C1699.6,215.5 1698.7,221.3 1699,227.1L1705.7,236C1706.5,237.5 1705.8,236.3 1707.4,236C1708.4,239.1 1708.1,240 1707.4,243.3L1710.7,243.9C1709.6,249.7 1691.8,267.2 1705.1,271.8C1706.2,269.8 1704.8,270.9 1707.3,270.1C1707.9,274.7 1711.1,279.6 1713.4,284L1715.1,284.6C1720.6,280.6 1727.9,278.9 1731.8,273.5C1732.5,270.9 1733.3,268.3 1734,265.7C1735.9,262.8 1740.5,262.4 1742.4,259L1755.8,260.1L1755.8,261.2L1756.9,264.5C1756.7,265.1 1756.5,265.6 1756.3,266.2C1752.4,268.8 1748,266.7 1742.9,267.9L1732.3,277.4C1732.9,284.5 1732.4,283.5 1729,288C1730,291.8 1732,293.7 1734,296.4C1730.5,302.4 1723.3,304.1 1718.4,308.7C1718.7,311.3 1719.9,313.6 1721.7,315.4C1719.7,327 1707,335 1702.7,344.9C1693.9,365.5 1696.5,393.1 1687.1,411.2C1684.6,416 1679.5,415.3 1675.4,418.5L1667,432.4C1663.3,437.2 1657.3,440.3 1651.9,443.5C1648.9,448.3 1646,453.2 1643,458C1640.2,461.9 1636.2,463.5 1633,466.9C1630.9,471.2 1628.9,475.4 1626.9,479.7C1624.7,482.9 1623.3,480.1 1620.2,481.4C1617.1,482.7 1601.5,501.6 1601.2,506.5C1605.3,512.2 1626.2,532.2 1625.2,536L1629.7,537.1L1629.7,537.6L1625.8,539.8C1622.3,539.6 1618.9,538.2 1616.3,535.8C1614.4,534 1612.7,532.1 1611.2,530.1C1611.2,530.2 1611.3,530.2 1611.3,530.3L1610.2,530.3L1610.2,529C1608.6,527 1606.8,525.3 1604.6,523.9L1604,524.4C1606,526.9 1609.9,529.7 1607.9,534.4C1606.5,536.4 1606.1,535 1603.4,536.1C1601,537.4 1600.6,538.9 1600.6,541.1C1598.1,540.9 1598.2,541.1 1596.1,542.2C1595.4,540.9 1594.6,539.6 1593.9,538.3C1591.8,539.6 1592.5,539.9 1592.8,543.3C1590.2,543.1 1591.3,542.2 1590,544.4C1587.4,543.2 1585.3,541 1584.4,538.3L1582.7,538.3C1582.9,539.8 1583.1,541.3 1583.3,542.8C1581.3,542.8 1581.9,542.4 1578.8,542.8C1578.6,541.3 1578.4,539.8 1578.2,538.3C1575.5,539.5 1575.9,539.3 1577.1,541.6L1574.3,543.3L1572.1,540.5L1570.4,543.3L1573.2,546.1L1584.9,544.4L1585.5,545L1585.5,546.7C1579.7,548.5 1575.3,546.1 1568.2,547.8C1560.6,549.7 1558.1,555.9 1549.2,556.2C1546.7,553.1 1545.1,551.9 1545.9,546.7C1549.1,545.3 1549.3,542.2 1552.6,540.6C1553.7,539.7 1553.4,539.8 1555.4,539.5L1558.2,544.5L1560.4,545.1C1559.7,542.7 1558.9,540.3 1558.2,537.8C1561,537.6 1564.7,535.3 1569.9,535C1570.6,533.1 1571.4,531.3 1572.1,529.4L1572.1,528.8L1568.8,528.8L1567.7,524.3L1566.6,523.8L1566,523.8C1566,528.1 1566.7,530.3 1568.2,532.7L1552.6,533.8C1552.4,533.4 1552.2,533.1 1552,532.7C1552.8,527.3 1556.1,524.3 1557.6,518.2C1568.6,515.1 1581.9,513.6 1594.4,513.2C1597.5,516.3 1599,520 1602.8,522.7L1603.4,522.7L1596.7,511.5L1601.2,508.7L1601.2,507C1596.3,507.9 1591.1,510.9 1587.3,512L1577.3,511.4C1569.9,512.5 1562.7,514.2 1555.6,516.4C1553.7,522.7 1548.2,529.3 1551.1,534.2C1538.8,537.3 1517.7,539.9 1508.2,549.2C1507.8,553.3 1528.1,590.8 1531.6,597.7C1539.4,613.1 1541.5,653.7 1544.4,677.4C1547.2,700.1 1546.3,733.6 1541.1,757.1C1539.2,765.8 1535.5,777.9 1537.2,787.8C1538.8,797.3 1540.9,804.9 1544.4,811.8C1543.1,813.3 1542.6,837.4 1543.3,841.3C1544.7,849.3 1550.1,855.8 1549.4,865.8C1547.3,894.8 1547.4,921.4 1542.7,949.4C1539.9,966.4 1542.1,979.6 1538.8,995.7C1536.4,1006.8 1534,1018 1531.5,1029.1C1530.9,1029.5 1530.4,1029.9 1529.8,1030.2L1512.5,1008.5C1512.1,1009.8 1511.8,1011.1 1511.4,1012.4L1506.9,1008.5L1505.2,1010.2L1519.7,1030.3C1523.7,1032.1 1527.3,1031.3 1529.2,1034.8L1529.2,1039.8C1532.8,1041.8 1540.8,1040.5 1545.9,1041.5C1546.1,1019.5 1557,988.6 1562.6,968.5C1564.5,961.6 1562.4,956.6 1564.3,949.5C1570.1,927.5 1572.9,889.8 1574.3,865.3C1593.1,861.5 1594.7,897.6 1591.6,916C1583.2,964.8 1579.8,1037.2 1591,1086.6C1593,1095.5 1592,1106.8 1594.9,1114.5C1600.6,1115.5 1606.4,1112.7 1610.5,1112.3C1615.2,1107.4 1609.4,1077.6 1609.4,1066.6C1609.2,1031.2 1609.2,1002.1 1613.3,972.4C1614,967.6 1611.7,961.3 1614.4,956.2C1616.7,952.9 1672.3,948.8 1683,952.3C1686.8,956.5 1684.2,967.3 1685.2,974C1687.4,987.7 1686.2,1005.7 1691.3,1018.6C1694.1,1019.3 1700.7,1020.1 1703.6,1019.2C1709.2,1012.9 1706,958.5 1706.9,950.6C1732.5,948.9 1752.9,942.8 1776,937.2C1786.4,934.7 1795.9,935.4 1803.9,931.6L1805,932.7C1805.2,940.9 1805.4,949 1805.6,957.2C1805.4,962.2 1805.2,967.2 1805,972.2C1806.1,985.6 1807.2,999 1808.3,1012.3L1808.3,1039.1C1803.1,1042.9 1795.2,1042.1 1792.7,1048.6C1799.5,1047.1 1800.7,1046.1 1808.3,1044.7C1809.1,1045.8 1808.3,1045 1809.4,1045.8C1804.1,1063.7 1768.9,1079.6 1770.4,1096L1762.6,1097.1L1760.4,1100.4L1762.1,1103.2C1778.9,1109.5 1832.7,1105.5 1843.5,1098.7C1849.5,1095 1850.4,1090.4 1854.1,1084.2C1859.6,1074.9 1872.1,1077.7 1883.1,1077C1886.2,1072.2 1888.5,1066.9 1889.8,1061.4C1889.6,1059.9 1889.4,1058.4 1889.2,1056.9C1890.4,1054.1 1895.2,1052.7 1896.4,1049.1C1900.6,1037.2 1896.9,1018.8 1898.6,1007.3C1904.4,967.5 1912.9,912.6 1903.1,871.3C1900.3,859.3 1903.1,847.8 1900.3,837.3L1901.4,836.2C1902.8,841 1907.6,846.1 1913.1,846.8C1916.8,841 1920.9,835.4 1925.4,830.1C1933.9,837.5 1939,849.6 1946,858.5C1945.8,859.4 1945.6,860.4 1945.4,861.3C1947.4,869.5 1943.5,877.9 1946,886.4L1949.9,898.1C1953.3,900.1 1953.7,899.2 1957.2,897.6L1955.5,900.9L1957.2,903.1L1960,902.5C1967.2,895.6 1983.5,842.9 1980.6,827.2C1978.6,816.5 1976.1,806 1977.3,794.9L1985.4,794.7ZM1930.2,612.3C1929.5,611.9 1928.9,611.3 1928.5,610.6C1929.6,611.4 1929.5,611.2 1930.2,612.3ZM1926.9,628.5L1928,629.1L1928,629.6L1926.9,630.2L1926.3,629.1L1926.9,628.5ZM1923,624L1924.7,624C1923.1,624.6 1924.4,625 1923,624ZM1924.1,586.1C1922.4,585.4 1923.4,586.1 1922.4,585C1924.1,585.7 1923.1,585 1924.1,586.1ZM1923,593.3L1924.1,593.3L1922.4,594.4C1922.6,594.1 1922.8,593.8 1923,593.3ZM1915.8,536.5C1914.1,535.8 1915.1,536.5 1914.1,535.4C1915.7,536.1 1914.7,535.4 1915.8,536.5ZM1902.9,506.4L1901.8,505.3C1902.8,506.1 1902.1,505.4 1902.9,506.4ZM1901.8,464.6L1901.2,465.7C1901,465.3 1900.8,465 1900.6,464.6L1901.8,464.6ZM1609.1,507L1609.1,505.9C1609.6,506.9 1609.7,506 1609.1,507ZM1691.6,555.5L1691,554.4C1692.1,555.1 1691.4,555 1691.6,555.5ZM1692.7,845.4C1691.4,846.1 1692,846.8 1691,845.4L1692.7,845.4ZM1691.6,893.9C1690.3,894.6 1690.9,895.3 1689.9,893.9L1691.6,893.9ZM1681.6,494.7C1682.1,495.7 1682.1,494.8 1681.6,495.8L1681.6,494.7ZM1654.9,514.8C1654.2,514.4 1653.6,513.8 1653.2,513.1L1654.9,514.8ZM1644.9,460.2L1646,461.9L1644.9,461.9L1644.9,460.2ZM1641.5,528.2C1652.5,515.6 1671.3,511.2 1681.1,497L1683.3,497C1684.4,509.8 1685.5,522.6 1686.6,535.5L1686,536C1672.4,534.5 1654.2,528.9 1641.4,528.8L1641.5,528.2ZM1683.9,755.6L1683.3,754.5C1684.3,755.2 1683.6,755.1 1683.9,755.6ZM1683.3,566.6L1682.2,565.5L1682.8,564.9L1684.5,565.5L1683.3,566.6ZM1680.5,701L1679.9,699.9C1680.9,700.6 1680.2,700.5 1680.5,701ZM1678.2,868.8L1677.6,868.8C1677.4,868.1 1677.2,867.3 1677,866.6C1678.3,867.6 1677.7,866.7 1678.2,868.8ZM1676.6,748.9C1676.4,748.5 1676.2,748.2 1676,747.8C1677,748.5 1676.3,748.4 1676.6,748.9ZM1673.2,538.8C1673.4,538.4 1673.6,538.1 1673.8,537.7C1673.5,538.3 1674.3,538.1 1673.2,538.8ZM1669.3,583.4C1668.2,582.6 1669,583.4 1668.2,582.3L1669.3,583.4ZM1642,710.4L1643.7,711.5L1643.7,712.1L1641.5,711.5C1641.6,711.2 1641.8,710.8 1642,710.4ZM1640.9,534.8C1640.7,535.2 1640.5,535.5 1640.3,535.9L1639.7,534.8L1640.9,534.8ZM1633.1,472.4C1632.9,472 1632.7,471.7 1632.5,471.3C1633.5,472 1632.8,471.9 1633.1,472.4ZM1623.1,548.8L1624.2,548.8L1624.2,550.5L1623.6,550.5L1622.5,549.4L1623.1,548.8ZM1609.1,548.8C1609.3,549.6 1609.5,550.3 1609.7,551L1609.1,551L1609.1,548.8ZM1600.8,542.6L1600.2,541.5C1601.2,542.3 1600.5,542.1 1600.8,542.6ZM1574.6,826.4L1575.7,827.5C1574.6,826.7 1575.3,827.5 1574.6,826.4ZM1579,852.6C1578.6,853 1578.3,853.4 1577.9,853.7L1577.3,853.1L1577.9,852L1579,852L1579,852.6ZM1578.5,780.7L1579.1,779.6L1580.2,779.6C1579.1,780.7 1580.2,780 1578.5,780.7ZM1582.4,861.5C1583.5,862.3 1582.7,861.5 1583.5,862.6L1582.4,861.5ZM1564.5,789.6L1562.8,790.7C1558.6,774 1563.1,751.3 1564.5,733.8C1573.4,731.3 1623.9,723 1628.1,718.8L1629.2,719.9C1628.7,721.4 1628.9,720.9 1629.8,722.1C1635.8,719.6 1668.4,720.8 1673.8,723.8L1674.9,723.8C1676.1,731.9 1668.4,744.2 1666.5,752.8C1666.7,757.5 1666.9,762.1 1667.1,766.7C1641.8,760.5 1577,769.7 1564.5,789.6ZM1669.9,844.2C1668.6,844.9 1669.2,845.6 1668.2,844.2L1669.9,844.2ZM1658.8,840.3C1657.1,839.6 1658.1,840.3 1657.1,839.2L1658.8,840.3ZM1650.4,773.4C1649.8,774.1 1649,774.6 1648.2,775.1L1647,774L1647.6,773.5L1650.4,773.4ZM1628.7,785.1C1628.5,784.7 1628.3,784.4 1628.1,784C1629.1,784.8 1628.4,784.6 1628.7,785.1ZM1623.1,867.6C1622.9,867.2 1622.7,866.8 1622.5,866.5C1623.5,867.3 1622.8,867.1 1623.1,867.6ZM1618.6,909.4L1616.9,911.1C1617.1,910 1617.3,908.9 1617.5,907.8L1618.6,909.4ZM1603.6,775.1L1605.3,776.2C1603.2,776.4 1604.6,776.8 1603.6,775.1ZM1604.2,779.6L1603,781.8C1603.2,781.1 1603.4,780.3 1603.6,779.6L1604.2,779.6ZM1596.4,945.1L1595.8,944C1596.8,944.8 1596.1,944.6 1596.4,945.1ZM1595.3,925.6L1594.7,924.5C1595.6,925.2 1595,925.1 1595.3,925.6ZM1595.3,829.7C1596.3,830.4 1595.6,830.3 1595.9,830.8C1595.6,830.5 1595.4,830.1 1595.3,829.7ZM1593.6,935.1C1594.7,936.1 1594,935.1 1594.7,936.8L1593.6,936.8L1593.6,935.1ZM1594.1,1015.9C1593.9,1015.5 1593.7,1015.1 1593.5,1014.8C1594.6,1014 1593.8,1014.8 1594.6,1013.7L1596.3,1014.8C1596.1,1015.2 1595.9,1015.6 1595.7,1015.9L1594.1,1015.9ZM1596.4,1059.4L1596.4,1058.3C1596.8,1059.3 1596.8,1058.4 1596.4,1059.4ZM1600.3,1024.3L1601.4,1025.4C1600.3,1024.6 1601,1025.4 1600.3,1024.3ZM1601.9,907.8L1601.9,905.6C1602.1,906.4 1602.3,907.1 1602.5,907.8L1601.9,907.8ZM1601.9,899.4L1601.3,898.3C1602.3,899 1601.6,898.9 1601.9,899.4ZM1603.1,995.9C1603.3,995.3 1603.5,994.8 1603.7,994.2C1604,995.6 1603.8,994.7 1603.1,995.9ZM1604.2,966.9L1603.6,965.8C1604.6,966.5 1603.9,966.3 1604.2,966.9ZM1607,1060.5C1607.2,1059.9 1607.4,1059.4 1607.6,1058.8C1607.5,1060.3 1608.1,1059.3 1607,1060.5ZM1609.2,872.1C1609,871.7 1608.8,871.3 1608.6,871C1609.6,871.7 1608.9,871.6 1609.2,872.1ZM1610.9,916.1L1610.9,915C1611.3,916 1611.3,915.2 1610.9,916.1ZM1609.8,864.8L1608.7,865.9C1606.3,863.4 1600.6,854.6 1600.9,852C1605.4,853.3 1609.3,856 1612.1,859.8C1613.2,862.6 1611.9,863.9 1609.8,864.8ZM1613.1,839.7L1614.2,840.3L1613.1,841.4L1613.1,839.7ZM1613.7,911.1L1614.3,910L1615.4,910C1616.3,911.6 1615.2,910.8 1613.7,911.1ZM1614.2,914.4C1615.9,915.1 1614.9,914.4 1615.9,915.5L1614.2,914.4ZM1627,945.1L1626.4,944L1627.5,944L1627,945.1ZM1633.1,940.7L1634.2,940.1C1635.4,940.4 1633.1,940.7 1633.1,940.7ZM1687.2,885.5C1683.3,900.1 1686,915.9 1685.5,932.3C1666.5,942 1637.7,935.3 1618.6,942.3L1616.9,942.3C1618.4,925.4 1619.9,908.5 1621.3,891.6C1621.1,884.5 1620.9,877.5 1620.7,870.4C1621.6,871.5 1621.5,871.2 1621.8,873.2C1627.6,876.5 1677.6,872.1 1687.6,871L1687.6,872.1C1687.8,872.1 1688.1,881.8 1687.2,885.5ZM1690.5,772.9C1688.8,772.2 1689.8,772.9 1688.8,771.8C1690.5,772.5 1689.5,771.7 1690.5,772.9ZM1691.1,898.9L1693.3,899.5L1693.3,900.6C1692.9,901.1 1692.5,901.7 1692.2,902.3L1690,902.3C1689.8,901.7 1689.6,901.2 1689.4,900.6L1691.1,898.9ZM1691.1,918.4L1691.1,917.3C1691.6,918.3 1691.6,917.4 1691.1,918.4ZM1690.5,987L1691.6,988.1L1691.6,989.8L1689.9,989.8C1690.1,988.8 1690.3,987.9 1690.5,987ZM1692.8,925.1L1692.2,924C1693.2,924.7 1692.5,924.5 1692.8,925.1ZM1693.3,1006.5L1695,1006.5C1693.6,1007.1 1694.2,1007.8 1693.3,1006.5ZM1695,970.8C1696.1,971.8 1695.4,970.8 1696.1,972.5L1695,970.8ZM1696.7,934L1696.1,932.9C1697.1,933.6 1696.4,933.5 1696.7,934ZM1698.9,997.6L1698.3,996.5C1699.3,997.2 1698.6,997 1698.9,997.6ZM1704.5,724.4L1705.1,723.3L1706.2,724.4L1704.5,724.4ZM1703.9,542.1L1703.9,541.6L1705.6,541C1707.5,540.5 1705.6,541.9 1703.9,542.1ZM1813.2,572.2L1812.6,573.3L1812,572.2L1813.2,572.2ZM1810.9,934L1810.9,932.3L1811.5,932.3C1811.3,932.9 1811.1,933.4 1810.9,934ZM1811.5,895.5L1812.6,895.5L1812.6,898.3L1812,898.3C1811.8,897.4 1811.7,896.5 1811.5,895.5ZM1799.8,729.4L1799.2,730.5C1799,730.1 1798.8,729.8 1798.6,729.4L1799.8,729.4ZM1795.3,699.9C1795.5,700.3 1795.7,700.7 1795.9,701L1794.8,701C1794.9,700.6 1795.1,700.2 1795.3,699.9ZM1795.3,714.4L1794.2,713.3C1795.3,714 1794.5,713.3 1795.3,714.4ZM1793.6,554.9L1793,553.8C1794.1,554.5 1793.4,554.4 1793.6,554.9ZM1792,722.7L1793.7,723.3C1796.1,724.8 1796.6,726.7 1795.4,728.9C1793.8,730.7 1789.7,730.8 1787,729.5L1785.9,729.5L1785.9,728.9C1787.5,726.1 1790,725.1 1792,722.7ZM1785.3,562.7L1786.4,562.7L1785.8,563.8C1785.7,563.5 1785.5,563.1 1785.3,562.7ZM1788.7,708.7C1788.5,709.1 1788.3,709.5 1788.1,709.8L1787.5,708.7L1788.7,708.7ZM1764.1,536C1767.9,537.7 1788.7,556.5 1789.7,560C1773.3,559.2 1772.7,542.2 1756.8,539.9C1760,538.4 1761.8,538.1 1764.1,536ZM1784.7,841.5L1784.7,842L1783.6,842.6L1783,841.5L1783.6,840.9L1784.7,841.5ZM1779.7,558.3L1777.5,559.4C1777.7,559 1777.9,558.6 1778.1,558.3L1779.7,558.3ZM1754.1,532.7C1752.1,532.3 1752.4,532.5 1751.3,531.6C1753.3,531.9 1753,531.7 1754.1,532.7ZM1741.3,538.8C1752.7,539.6 1759.1,540.5 1766.4,546.1C1770.4,549.1 1770.7,553.2 1776.4,555L1777.5,556.7C1777.3,557.4 1777.1,558.2 1776.9,558.9C1767.1,560.2 1757.1,559.8 1747.4,557.8L1740.1,556.1C1735.6,557.2 1730.1,561.8 1725.6,561.7L1724.5,563.4C1725.3,564.9 1726,566.4 1726.7,567.9C1724.5,569.8 1723.2,569 1722.2,572.4L1718.9,572.4C1718.7,572 1718.5,571.6 1718.3,571.3C1720,566.5 1719.3,560.9 1717.7,555.7C1724.6,548.7 1735.1,546.2 1741.3,538.8ZM1774.2,562.2L1774.8,561.1C1775,561.5 1775.2,561.8 1775.4,562.2L1774.2,562.2ZM1768,854.8L1766.9,853.7C1767.9,854.5 1767.2,853.8 1768,854.8ZM1761.3,744.5C1760.3,743.7 1761,744.5 1760.2,743.4L1761.3,744.5ZM1758,726.6L1756.9,725.5C1757.9,726.3 1757.2,725.5 1758,726.6ZM1746.8,575C1745.1,574.3 1746.1,575 1745.1,573.9C1746.8,574.6 1745.8,573.8 1746.8,575ZM1740.1,787.4C1738.4,786.7 1739.4,787.4 1738.4,786.3C1740.1,787 1739.1,786.2 1740.1,787.4ZM1730.7,580.6L1729,580.6C1729.2,580.2 1729.4,579.9 1729.6,579.5L1730.2,579.5C1730.3,579.8 1730.5,580.2 1730.7,580.6ZM1718.4,531C1717.6,530.4 1717.1,529.7 1716.7,528.8L1718.4,531ZM1718.4,851.5C1717.1,852.2 1717.7,852.9 1716.7,851.5L1718.4,851.5ZM1713.4,539.9C1713.2,540.3 1713,540.7 1712.8,541C1712.6,540.6 1712.4,540.3 1712.2,539.9L1713.4,539.9ZM1710.6,548.8L1711.7,549.4L1710.6,550.5L1710.6,548.8ZM1713.9,566.1L1716.1,566.6L1716.1,572.7L1710.5,574.4C1710.3,573.6 1710.1,572.9 1709.9,572.2L1713.9,566.1ZM1710,861C1711.1,862.1 1710.6,861.2 1711.1,863.2L1710,863.2L1710,861ZM1709.4,935.1L1711.1,936.2C1709.5,935.5 1710.5,936.2 1709.4,935.1ZM1759.1,933.5C1759.3,933.1 1759.5,932.7 1759.7,932.4C1759.7,933.4 1760.2,932.9 1759.1,933.5ZM1763,932.9L1762.4,932.9C1762,932.5 1761.7,932.1 1761.3,931.8L1762.4,930.7L1763.5,930.7C1763.3,931.4 1763.2,932.1 1763,932.9ZM1808.7,922.9C1808.9,922.5 1809.1,922.2 1809.3,921.8C1809.5,922.9 1809.7,922.1 1808.7,922.9ZM1807,916.2C1797.6,917.3 1782.8,921.4 1773,923.5L1709.4,929.6L1708.8,929.6C1705.9,919.1 1710.3,869.5 1713.8,867.2C1718.1,865.1 1726,867.7 1730.5,866.6C1742.8,863.9 1798.4,864.8 1805.8,858.2L1811.9,859.9L1807,916.2ZM1810.9,1027.2L1810.9,1025.5L1813.1,1025.5C1813.3,1026.1 1813.5,1026.6 1813.7,1027.2L1813.7,1027.8L1812,1027.8L1810.9,1027.2ZM1817,1041.1L1814.8,1041.1L1813.7,1040.5C1813.9,1040.1 1814.1,1039.7 1814.3,1039.4C1816.3,1039.8 1816,1039.6 1817.1,1040.5L1817,1041.1ZM1817,956.9L1817,955.2L1818.1,956.3L1817,956.9ZM1819.3,852.7C1819.1,851.8 1818.9,850.9 1818.7,849.9C1819.1,850.8 1819.5,851.8 1819.8,852.7L1819.3,852.7ZM1822.6,920.1C1822.4,919.7 1822.2,919.3 1822,919C1823.1,919.7 1822.4,919.5 1822.6,920.1ZM1823.7,919.6C1825.4,920.3 1824.4,919.6 1825.4,920.7L1823.7,919.6ZM1836,736.7L1834.9,735C1836,736 1835.3,735 1836,736.7ZM1827.6,1065C1829.3,1062.1 1830.9,1061.1 1833.2,1058.9C1832.5,1057.6 1831.7,1056.3 1831,1055L1839.9,1056.7C1838.5,1059.7 1830.8,1063.7 1827.6,1065ZM1851.1,1058.9L1850.5,1057.8C1851.5,1058.5 1850.8,1058.3 1851.1,1058.9ZM1858.3,640.2C1858.1,639.8 1857.9,639.4 1857.7,639.1C1858.8,639.8 1858.1,639.7 1858.3,640.2ZM1869.5,1071.1C1869.7,1070.5 1869.9,1070 1870.1,1069.4L1870.7,1069.4C1869.8,1071.1 1870.6,1070.1 1869.5,1071.1ZM1875.6,732.2L1877.3,732.7L1877.3,733.3L1875,733.3L1875.6,732.2ZM1875,1057.2L1875,1056.6L1877.2,1055.5L1878.9,1056.1C1877.7,1057 1877.4,1057.1 1875,1057.2ZM1895.7,707.7L1894.6,706.6C1895.6,707.3 1894.9,706.6 1895.7,707.7ZM1897.9,706.6L1896.8,707.2C1896.6,706.6 1896.4,706.1 1896.2,705.5L1897.9,706.6ZM1893.4,693.2L1895.1,693.2C1895.5,695.1 1895.9,696.9 1896.2,698.8L1892.3,697.7L1893.4,693.2ZM1890.1,693.7L1891.2,694.8C1890.1,694.1 1890.8,694.8 1890.1,693.7ZM1886.7,697.1C1885,696.4 1886,697.1 1885,696L1886.7,697.1ZM1883.9,1005.4L1884.5,1004.3C1884.7,1004.7 1884.9,1005 1885.1,1005.4L1883.9,1005.4ZM1883.9,955.7C1884.3,955.2 1884.7,954.6 1885,954L1886.1,954L1885,956.2L1883.9,955.7ZM1885.6,1006.5C1885.8,1005.9 1886,1005.4 1886.2,1004.8C1886.6,1006.2 1886.4,1005.3 1885.6,1006.5ZM1886.7,821.4C1887.8,822.2 1887,821.4 1887.8,822.5L1886.7,821.4ZM1889.5,692.6C1888.4,691.1 1888.9,692.1 1888.9,690.4L1890,690.9C1889.9,691.5 1889.7,692 1889.5,692.6ZM1892.3,814.7L1892.3,813C1893.4,814 1892.7,813 1893.4,814.7L1892.3,814.7ZM1895.7,985.3L1896.8,986.4C1895.7,985.6 1896.4,986.3 1895.7,985.3ZM1898.4,937.4L1896.2,936.8C1896.4,936.4 1896.6,936.1 1896.8,935.7L1898.5,935.7L1898.4,937.4ZM1899.6,691.5L1897.9,691.5L1897.9,689.8L1899.6,690.9L1899.6,691.5ZM1902.9,748.4C1901.8,747.6 1902.6,748.4 1901.8,747.3L1902.9,748.4ZM1901.2,752.8C1901.4,751.5 1901.6,750.2 1901.8,748.9C1902,750 1902.2,751.1 1902.4,752.2L1901.2,752.8ZM1903.5,807.5L1902.9,806.4C1903.9,807.1 1903.2,806.9 1903.5,807.5ZM1904.6,834.8L1903.5,833.1L1905.7,833.7L1904.6,834.8ZM1950.3,757.3C1951.3,758.9 1951,757.7 1950.3,759.5L1950.3,760.6L1949.2,759.5L1950.3,757.3ZM1915.2,766.2L1916.3,767.3C1915.2,766.5 1915.9,767.3 1915.2,766.2ZM1921.8,764C1921.6,763.6 1921.4,763.3 1921.2,762.9L1922.3,762.9L1921.8,764ZM1921.3,760.6L1921.3,759L1922.4,759.6L1921.3,760.6ZM1925.7,823.1C1926.8,823.9 1926,823.1 1926.8,824.2L1925.7,823.1ZM1923,750L1923,747.8C1926.1,748 1927.5,748.5 1929.1,750L1923,750ZM1930.8,753.9C1932.5,754.6 1931.5,753.9 1932.5,755C1930.8,754.3 1931.8,755.1 1930.8,753.9ZM1934.1,810.2L1934.1,808.5L1934.7,808.5C1934.5,809.1 1934.3,809.7 1934.1,810.2ZM1935.3,792.4L1935.3,791.3C1935.7,792.3 1935.8,791.4 1935.3,792.4ZM1935.8,752.8L1935.2,751.7C1936.2,752.4 1935.6,752.3 1935.8,752.8ZM1938.6,809.1L1939.7,809.1L1939.1,810.2L1938.6,809.1ZM1941.4,778.4L1941.4,776.7L1943,776.7C1942.5,777.3 1941.9,777.9 1941.4,778.4ZM1945.3,820.2L1946.4,820.2L1944.2,821.9L1945.3,820.2ZM1952.5,846.4L1952.5,847.5L1944.7,837.5L1946.9,836.4C1950.8,838.3 1951.2,841.5 1953.6,844.8L1952.5,846.4ZM1955.9,791.3C1955.7,791.7 1955.5,792 1955.3,792.4L1954.7,791.3L1955.9,791.3ZM1956.4,871C1955.1,871.7 1955.7,872.4 1954.7,871L1956.4,871ZM1956.4,885.5L1955.8,886.1L1955.2,886.1C1954.8,884.4 1954.4,882.8 1954.1,881.1L1956.3,881.7C1956.5,882.3 1956.7,882.8 1956.9,883.4C1956.8,884 1956.6,884.7 1956.4,885.5ZM1958.1,883.2L1958.1,882.1C1958.6,883.1 1958.6,882.3 1958.1,883.2ZM1964.3,755.6C1965.9,757.4 1964.9,761.8 1964.9,764.5L1964.3,764.5C1962.4,762.3 1963.2,758.1 1964.3,755.6ZM1964.3,828L1964.3,826.3L1966,826.9L1964.3,828ZM1965.9,765.6C1966.1,765.1 1966.3,764.5 1966.5,763.9C1966.7,764.6 1966.9,765.4 1967.1,766.1L1966.5,766.1L1965.9,765.6ZM1967,775.1L1967,772.3L1968.1,774C1967.8,774.4 1967.4,774.7 1967,775.1ZM1969.8,825.8C1969.6,825.4 1969.4,825 1969.2,824.7L1970.3,824.7C1970.2,825.1 1970,825.5 1969.8,825.8ZM1975.4,809.1C1975.2,808.7 1975,808.4 1974.8,808L1975.9,808L1975.4,809.1Z" style="fill:rgb(110,123,139);fill-rule:nonzero;"/>
        </g>
        <path d="M1610.8,528.7L1610.8,528.9C1611.1,529.3 1611.5,529.7 1611.8,530.2C1611.3,528.8 1611.9,529.7 1610.8,528.7Z" style="fill:white;fill-rule:nonzero;"/>
        <path d="M1615.8,534.8L1616.9,535.9C1616.2,534.9 1616.9,535.6 1615.8,534.8Z" style="fill:white;fill-rule:nonzero;"/>
        <path d="M1971.5,752.8C1971.3,753.2 1971.1,753.5 1970.9,753.9C1971.7,753 1971.8,754 1971.5,752.8Z" style="fill:white;fill-rule:nonzero;"/>
        <path d="M1821.5,1075L1820.9,1076.1L1822,1076.1L1821.5,1075Z" style="fill:rgb(35,31,32);fill-rule:nonzero;stroke:white;stroke-width:1px;"/>
        <path d="M1815.4,1077.8L1811.5,1082.2L1812.1,1082.2L1816.6,1079.4C1815.8,1077.8 1816.5,1078.8 1815.4,1077.8Z" style="fill:white;fill-rule:nonzero;"/>
        <path d="M1824.3,1077.8L1826,1078.4L1824.3,1077.8Z" style="fill:rgb(35,31,32);fill-rule:nonzero;stroke:white;stroke-width:1px;"/>
        <path d="M1838.8,1078.9L1838.2,1079.5L1839.3,1080.6L1839.9,1078.9L1838.8,1078.9Z" style="fill:white;fill-rule:nonzero;"/>
        <path d="M1609.1,1080L1610.2,1080.6L1609.1,1080Z" style="fill:rgb(35,31,32);fill-rule:nonzero;stroke:white;stroke-width:1px;"/>
        <path d="M1795.9,1081.2L1797,1081.8L1795.9,1081.2Z" style="fill:rgb(35,31,32);fill-rule:nonzero;stroke:white;stroke-width:1px;"/>
        <path d="M1784.2,1086.2L1785.3,1086.8L1784.2,1086.2Z" style="fill:rgb(35,31,32);fill-rule:nonzero;stroke:white;stroke-width:1px;"/>
        <path d="M1598.5,1089.5L1598.5,1092.3L1599.1,1092.3L1599.7,1091.7C1598.9,1090.1 1600,1090.7 1598.5,1089.5Z" style="fill:white;fill-rule:nonzero;"/>
        <path d="M1832.7,1091.2L1833.3,1092.3C1833,1091.8 1833.7,1091.9 1832.7,1091.2Z" style="fill:rgb(35,31,32);fill-rule:nonzero;stroke:white;stroke-width:1px;"/>
    </g>
    <g transform="matrix(0.850511,-0.0826414,0.0847706,0.829149,143.953,942.159)">
        <text x="0px" y="0px" style="font-family:'BookAntiqua-Bold', 'Book Antiqua', serif;font-weight:700;font-size:315.925px;fill:rgb(110,123,139);">Mikroﬁlme</text>
    </g>
</svg>
